<mxfile host="app.diagrams.net" modified="2023-10-07T16:47:40.009Z" agent="Mozilla/5.0 (Windows NT 10.0; Win64; x64) AppleWebKit/537.36 (KHTML, like Gecko) Chrome/117.0.0.0 Safari/537.36" etag="dC3hclUkbr_rlfePh2KM" version="22.0.4" type="github">
  <diagram id="C5RBs43oDa-KdzZeNtuy" name="Page-1">
    <mxGraphModel dx="719" dy="386" grid="1" gridSize="10" guides="1" tooltips="1" connect="1" arrows="1" fold="1" page="1" pageScale="1" pageWidth="827" pageHeight="1169" math="0" shadow="0">
      <root>
        <mxCell id="WIyWlLk6GJQsqaUBKTNV-0" />
        <mxCell id="WIyWlLk6GJQsqaUBKTNV-1" parent="WIyWlLk6GJQsqaUBKTNV-0" />
        <mxCell id="B5U1O5-QQuCSI6vYpxnP-81" style="edgeStyle=orthogonalEdgeStyle;rounded=0;orthogonalLoop=1;jettySize=auto;html=1;exitX=0.5;exitY=1;exitDx=0;exitDy=0;entryX=0.5;entryY=0;entryDx=0;entryDy=0;" edge="1" parent="WIyWlLk6GJQsqaUBKTNV-1" source="B5U1O5-QQuCSI6vYpxnP-135">
          <mxGeometry relative="1" as="geometry">
            <mxPoint x="598.875" y="772" as="sourcePoint" />
            <mxPoint x="453.2450000000001" y="809" as="targetPoint" />
          </mxGeometry>
        </mxCell>
        <mxCell id="B5U1O5-QQuCSI6vYpxnP-82" style="edgeStyle=orthogonalEdgeStyle;rounded=0;orthogonalLoop=1;jettySize=auto;html=1;exitX=1;exitY=0.5;exitDx=0;exitDy=0;entryX=0;entryY=0.5;entryDx=0;entryDy=0;" edge="1" parent="WIyWlLk6GJQsqaUBKTNV-1" source="B5U1O5-QQuCSI6vYpxnP-83" target="B5U1O5-QQuCSI6vYpxnP-86">
          <mxGeometry relative="1" as="geometry" />
        </mxCell>
        <mxCell id="B5U1O5-QQuCSI6vYpxnP-83" value="Start" style="rounded=1;whiteSpace=wrap;html=1;arcSize=50;" vertex="1" parent="WIyWlLk6GJQsqaUBKTNV-1">
          <mxGeometry x="183" y="53" width="44" height="14" as="geometry" />
        </mxCell>
        <mxCell id="B5U1O5-QQuCSI6vYpxnP-84" value="End" style="rounded=1;whiteSpace=wrap;html=1;arcSize=50;" vertex="1" parent="WIyWlLk6GJQsqaUBKTNV-1">
          <mxGeometry x="236" y="1118" width="32.5" height="16" as="geometry" />
        </mxCell>
        <mxCell id="B5U1O5-QQuCSI6vYpxnP-85" style="edgeStyle=orthogonalEdgeStyle;rounded=0;orthogonalLoop=1;jettySize=auto;html=1;exitX=0.5;exitY=1;exitDx=0;exitDy=0;entryX=0.5;entryY=0;entryDx=0;entryDy=0;" edge="1" parent="WIyWlLk6GJQsqaUBKTNV-1" source="B5U1O5-QQuCSI6vYpxnP-86" target="B5U1O5-QQuCSI6vYpxnP-88">
          <mxGeometry relative="1" as="geometry" />
        </mxCell>
        <mxCell id="B5U1O5-QQuCSI6vYpxnP-86" value="&lt;ol&gt;&lt;li&gt;Using analytical solution, find the initial &#39;s&#39;.&lt;/li&gt;&lt;li&gt;Mesh both the domains and define the initial temperature distribution.&lt;/li&gt;&lt;/ol&gt;" style="rounded=1;whiteSpace=wrap;html=1;align=left;" vertex="1" parent="WIyWlLk6GJQsqaUBKTNV-1">
          <mxGeometry x="253.25" y="40" width="436.75" height="40" as="geometry" />
        </mxCell>
        <mxCell id="B5U1O5-QQuCSI6vYpxnP-87" style="edgeStyle=orthogonalEdgeStyle;rounded=0;orthogonalLoop=1;jettySize=auto;html=1;exitX=0.5;exitY=1;exitDx=0;exitDy=0;" edge="1" parent="WIyWlLk6GJQsqaUBKTNV-1" source="B5U1O5-QQuCSI6vYpxnP-88" target="B5U1O5-QQuCSI6vYpxnP-91">
          <mxGeometry relative="1" as="geometry" />
        </mxCell>
        <mxCell id="B5U1O5-QQuCSI6vYpxnP-88" value="Initialize&amp;nbsp;&lt;b style=&quot;border-color: var(--border-color);&quot;&gt;&lt;u style=&quot;border-color: var(--border-color);&quot;&gt;E&amp;nbsp;&lt;/u&gt;&lt;/b&gt;as an instance of elemental subroutine and find the get global material parameters" style="rounded=1;whiteSpace=wrap;html=1;" vertex="1" parent="WIyWlLk6GJQsqaUBKTNV-1">
          <mxGeometry x="200.25" y="100" width="506.75" height="20" as="geometry" />
        </mxCell>
        <mxCell id="B5U1O5-QQuCSI6vYpxnP-89" style="edgeStyle=orthogonalEdgeStyle;rounded=0;orthogonalLoop=1;jettySize=auto;html=1;exitX=0.5;exitY=1;exitDx=0;exitDy=0;entryX=0.5;entryY=0;entryDx=0;entryDy=0;" edge="1" parent="WIyWlLk6GJQsqaUBKTNV-1" source="B5U1O5-QQuCSI6vYpxnP-91" target="B5U1O5-QQuCSI6vYpxnP-93">
          <mxGeometry relative="1" as="geometry" />
        </mxCell>
        <mxCell id="B5U1O5-QQuCSI6vYpxnP-90" style="edgeStyle=orthogonalEdgeStyle;rounded=0;orthogonalLoop=1;jettySize=auto;html=1;exitX=1;exitY=0.5;exitDx=0;exitDy=0;entryX=1;entryY=0.5;entryDx=0;entryDy=0;" edge="1" parent="WIyWlLk6GJQsqaUBKTNV-1" source="B5U1O5-QQuCSI6vYpxnP-91" target="B5U1O5-QQuCSI6vYpxnP-128">
          <mxGeometry relative="1" as="geometry">
            <Array as="points">
              <mxPoint x="771" y="150" />
              <mxPoint x="771" y="1073" />
            </Array>
          </mxGeometry>
        </mxCell>
        <mxCell id="B5U1O5-QQuCSI6vYpxnP-91" value="For &lt;b&gt;&lt;i&gt;time &lt;/i&gt;&lt;/b&gt;&amp;lt; &lt;b&gt;&lt;i&gt;End_time&lt;/i&gt;&lt;/b&gt;" style="shape=hexagon;perimeter=hexagonPerimeter2;whiteSpace=wrap;html=1;fixedSize=1;" vertex="1" parent="WIyWlLk6GJQsqaUBKTNV-1">
          <mxGeometry x="343.25" y="140" width="220" height="20" as="geometry" />
        </mxCell>
        <mxCell id="B5U1O5-QQuCSI6vYpxnP-92" style="edgeStyle=orthogonalEdgeStyle;rounded=0;orthogonalLoop=1;jettySize=auto;html=1;exitX=0.5;exitY=1;exitDx=0;exitDy=0;entryX=0.5;entryY=0;entryDx=0;entryDy=0;" edge="1" parent="WIyWlLk6GJQsqaUBKTNV-1" source="B5U1O5-QQuCSI6vYpxnP-93">
          <mxGeometry relative="1" as="geometry">
            <mxPoint x="453.25" y="320" as="targetPoint" />
          </mxGeometry>
        </mxCell>
        <mxCell id="B5U1O5-QQuCSI6vYpxnP-93" value="&lt;div style=&quot;&quot;&gt;&lt;span style=&quot;background-color: initial;&quot;&gt;&lt;b&gt;&lt;i&gt;nrs&lt;/i&gt;&lt;/b&gt; = 0&lt;/span&gt;&lt;br&gt;&lt;ol&gt;&lt;li style=&quot;text-align: left;&quot;&gt;&lt;span style=&quot;background-color: initial;&quot;&gt;Store all the previous&lt;b&gt;&amp;nbsp;&lt;/b&gt;&lt;/span&gt;global material parameters in respective variables&lt;/li&gt;&lt;li style=&quot;text-align: left;&quot;&gt;find new &#39;s&#39; using the formula 3.11a.&lt;/li&gt;&lt;li style=&quot;text-align: left;&quot;&gt;Re-mesh the solid and liquid domains for a new length.&amp;nbsp;&lt;/li&gt;&lt;li style=&quot;text-align: left;&quot;&gt;&lt;span style=&quot;background-color: initial;&quot;&gt;Run the elemental subroutine for the new domains.&amp;nbsp;&lt;/span&gt;&lt;/li&gt;&lt;/ol&gt;&lt;/div&gt;" style="rounded=1;whiteSpace=wrap;html=1;align=center;" vertex="1" parent="WIyWlLk6GJQsqaUBKTNV-1">
          <mxGeometry x="213.25" y="180" width="480" height="103" as="geometry" />
        </mxCell>
        <mxCell id="B5U1O5-QQuCSI6vYpxnP-94" style="edgeStyle=orthogonalEdgeStyle;rounded=0;orthogonalLoop=1;jettySize=auto;html=1;exitX=0.5;exitY=1;exitDx=0;exitDy=0;entryX=0.5;entryY=0;entryDx=0;entryDy=0;" edge="1" parent="WIyWlLk6GJQsqaUBKTNV-1" target="B5U1O5-QQuCSI6vYpxnP-98">
          <mxGeometry relative="1" as="geometry">
            <mxPoint x="453.25" y="350" as="sourcePoint" />
          </mxGeometry>
        </mxCell>
        <mxCell id="B5U1O5-QQuCSI6vYpxnP-97" style="edgeStyle=orthogonalEdgeStyle;rounded=0;orthogonalLoop=1;jettySize=auto;html=1;exitX=0.5;exitY=1;exitDx=0;exitDy=0;entryX=0.5;entryY=0;entryDx=0;entryDy=0;" edge="1" parent="WIyWlLk6GJQsqaUBKTNV-1" source="B5U1O5-QQuCSI6vYpxnP-98" target="B5U1O5-QQuCSI6vYpxnP-100">
          <mxGeometry relative="1" as="geometry" />
        </mxCell>
        <mxCell id="B5U1O5-QQuCSI6vYpxnP-98" value="set &lt;b style=&quot;text-decoration-line: underline;&quot;&gt;Ht&lt;/b&gt; = enthalpy at the previous newton raphson step" style="rounded=1;whiteSpace=wrap;html=1;" vertex="1" parent="WIyWlLk6GJQsqaUBKTNV-1">
          <mxGeometry x="243.25" y="370" width="420" height="20" as="geometry" />
        </mxCell>
        <mxCell id="B5U1O5-QQuCSI6vYpxnP-99" style="edgeStyle=orthogonalEdgeStyle;rounded=0;orthogonalLoop=1;jettySize=auto;html=1;exitX=0.5;exitY=1;exitDx=0;exitDy=0;entryX=0.5;entryY=0;entryDx=0;entryDy=0;" edge="1" parent="WIyWlLk6GJQsqaUBKTNV-1" source="B5U1O5-QQuCSI6vYpxnP-100" target="B5U1O5-QQuCSI6vYpxnP-102">
          <mxGeometry relative="1" as="geometry" />
        </mxCell>
        <mxCell id="B5U1O5-QQuCSI6vYpxnP-100" value="&lt;span style=&quot;background-color: initial; text-align: justify;&quot;&gt;Call&amp;nbsp;&lt;/span&gt;&lt;b style=&quot;background-color: initial; text-align: justify; text-decoration-line: underline;&quot;&gt;E&lt;/b&gt;&lt;span style=&quot;background-color: initial; text-align: justify;&quot;&gt;.get_param() to get global&amp;nbsp;&lt;/span&gt;&lt;span style=&quot;background-color: initial; border-color: var(--border-color);&quot;&gt;&lt;u style=&quot;font-weight: bold; border-color: var(--border-color);&quot;&gt;G&lt;/u&gt;&lt;span style=&quot;border-color: var(--border-color);&quot;&gt; (Residual Vector)&lt;/span&gt;&lt;/span&gt;&lt;span style=&quot;background-color: initial; text-align: justify;&quot;&gt;&amp;nbsp;&lt;/span&gt;&lt;span style=&quot;background-color: initial; text-align: justify;&quot;&gt;and&amp;nbsp;&lt;/span&gt;&lt;u style=&quot;background-color: initial; border-color: var(--border-color);&quot;&gt;&lt;b style=&quot;border-color: var(--border-color);&quot;&gt;dG&lt;/b&gt;&lt;/u&gt;&lt;span style=&quot;background-color: initial;&quot;&gt;&amp;nbsp;(Tangent Stiffness matrix)&lt;/span&gt;&lt;span style=&quot;background-color: initial; text-align: justify;&quot;&gt;.&amp;nbsp;&amp;nbsp;&lt;/span&gt;" style="rounded=1;whiteSpace=wrap;html=1;align=center;" vertex="1" parent="WIyWlLk6GJQsqaUBKTNV-1">
          <mxGeometry x="197" y="410" width="512.5" height="70" as="geometry" />
        </mxCell>
        <mxCell id="B5U1O5-QQuCSI6vYpxnP-101" style="edgeStyle=orthogonalEdgeStyle;rounded=0;orthogonalLoop=1;jettySize=auto;html=1;exitX=0.5;exitY=1;exitDx=0;exitDy=0;entryX=0.5;entryY=0;entryDx=0;entryDy=0;" edge="1" parent="WIyWlLk6GJQsqaUBKTNV-1" source="B5U1O5-QQuCSI6vYpxnP-102" target="B5U1O5-QQuCSI6vYpxnP-104">
          <mxGeometry relative="1" as="geometry" />
        </mxCell>
        <mxCell id="B5U1O5-QQuCSI6vYpxnP-102" value="Apply the Boundary Condition at the resp. node of the &lt;b&gt;&lt;u&gt;G&lt;/u&gt;&lt;/b&gt; and &lt;u&gt;&lt;b&gt;dG&lt;/b&gt;&lt;/u&gt; vectors and matrices" style="rounded=1;whiteSpace=wrap;html=1;" vertex="1" parent="WIyWlLk6GJQsqaUBKTNV-1">
          <mxGeometry x="199.5" y="500" width="510" height="30" as="geometry" />
        </mxCell>
        <mxCell id="B5U1O5-QQuCSI6vYpxnP-103" style="edgeStyle=orthogonalEdgeStyle;rounded=0;orthogonalLoop=1;jettySize=auto;html=1;exitX=0.5;exitY=1;exitDx=0;exitDy=0;entryX=0.5;entryY=0;entryDx=0;entryDy=0;" edge="1" parent="WIyWlLk6GJQsqaUBKTNV-1" source="B5U1O5-QQuCSI6vYpxnP-104" target="B5U1O5-QQuCSI6vYpxnP-106">
          <mxGeometry relative="1" as="geometry" />
        </mxCell>
        <mxCell id="B5U1O5-QQuCSI6vYpxnP-104" value="Update enthalpy as per the formula &lt;b&gt;&lt;u&gt;Hk_1&lt;/u&gt;&lt;/b&gt; = &lt;b&gt;&lt;u&gt;Hk_1&lt;/u&gt;&lt;/b&gt; - &lt;b&gt;&lt;u&gt;dG/G&lt;/u&gt;&lt;/b&gt;" style="rounded=1;whiteSpace=wrap;html=1;" vertex="1" parent="WIyWlLk6GJQsqaUBKTNV-1">
          <mxGeometry x="274.5" y="550" width="360" height="20" as="geometry" />
        </mxCell>
        <mxCell id="B5U1O5-QQuCSI6vYpxnP-105" style="edgeStyle=orthogonalEdgeStyle;rounded=0;orthogonalLoop=1;jettySize=auto;html=1;exitX=0.5;exitY=1;exitDx=0;exitDy=0;entryX=0.5;entryY=0;entryDx=0;entryDy=0;" edge="1" parent="WIyWlLk6GJQsqaUBKTNV-1" source="B5U1O5-QQuCSI6vYpxnP-106" target="B5U1O5-QQuCSI6vYpxnP-108">
          <mxGeometry relative="1" as="geometry" />
        </mxCell>
        <mxCell id="B5U1O5-QQuCSI6vYpxnP-106" value="Update &lt;b&gt;&lt;u&gt;Tk _1&lt;/u&gt;&lt;/b&gt; depending upon the type of material" style="rounded=1;whiteSpace=wrap;html=1;" vertex="1" parent="WIyWlLk6GJQsqaUBKTNV-1">
          <mxGeometry x="243.88" y="590" width="418.75" height="20" as="geometry" />
        </mxCell>
        <mxCell id="B5U1O5-QQuCSI6vYpxnP-107" style="edgeStyle=orthogonalEdgeStyle;rounded=0;orthogonalLoop=1;jettySize=auto;html=1;exitX=0.5;exitY=1;exitDx=0;exitDy=0;entryX=0.5;entryY=0;entryDx=0;entryDy=0;" edge="1" parent="WIyWlLk6GJQsqaUBKTNV-1" source="B5U1O5-QQuCSI6vYpxnP-108" target="B5U1O5-QQuCSI6vYpxnP-111">
          <mxGeometry relative="1" as="geometry" />
        </mxCell>
        <mxCell id="B5U1O5-QQuCSI6vYpxnP-108" value="Increase the &lt;b&gt;&lt;i&gt;nrs&lt;/i&gt;&lt;/b&gt; counter" style="rounded=1;whiteSpace=wrap;html=1;" vertex="1" parent="WIyWlLk6GJQsqaUBKTNV-1">
          <mxGeometry x="279.5" y="630" width="350" height="20" as="geometry" />
        </mxCell>
        <mxCell id="B5U1O5-QQuCSI6vYpxnP-109" style="edgeStyle=orthogonalEdgeStyle;rounded=0;orthogonalLoop=1;jettySize=auto;html=1;exitX=0.5;exitY=1;exitDx=0;exitDy=0;entryX=0.5;entryY=0;entryDx=0;entryDy=0;" edge="1" parent="WIyWlLk6GJQsqaUBKTNV-1" source="B5U1O5-QQuCSI6vYpxnP-111" target="B5U1O5-QQuCSI6vYpxnP-116">
          <mxGeometry relative="1" as="geometry">
            <mxPoint x="455.2549999999999" y="741" as="targetPoint" />
          </mxGeometry>
        </mxCell>
        <mxCell id="B5U1O5-QQuCSI6vYpxnP-110" value="No" style="edgeLabel;html=1;align=center;verticalAlign=middle;resizable=0;points=[];" vertex="1" connectable="0" parent="B5U1O5-QQuCSI6vYpxnP-109">
          <mxGeometry x="-0.6" y="1" relative="1" as="geometry">
            <mxPoint x="-1" y="4" as="offset" />
          </mxGeometry>
        </mxCell>
        <mxCell id="B5U1O5-QQuCSI6vYpxnP-111" value="If &lt;b&gt;&lt;i&gt;nrs&lt;/i&gt;&lt;/b&gt; = 1 &lt;br&gt;and &lt;b&gt;&lt;i&gt;t&lt;/i&gt;&lt;/b&gt; = 0" style="rhombus;whiteSpace=wrap;html=1;" vertex="1" parent="WIyWlLk6GJQsqaUBKTNV-1">
          <mxGeometry x="397.15" y="670" width="112.2" height="50" as="geometry" />
        </mxCell>
        <mxCell id="B5U1O5-QQuCSI6vYpxnP-112" style="edgeStyle=orthogonalEdgeStyle;rounded=0;orthogonalLoop=1;jettySize=auto;html=1;exitX=0.5;exitY=1;exitDx=0;exitDy=0;entryX=0.5;entryY=0;entryDx=0;entryDy=0;" edge="1" parent="WIyWlLk6GJQsqaUBKTNV-1" source="B5U1O5-QQuCSI6vYpxnP-116" target="B5U1O5-QQuCSI6vYpxnP-121">
          <mxGeometry relative="1" as="geometry" />
        </mxCell>
        <mxCell id="B5U1O5-QQuCSI6vYpxnP-113" value="No" style="edgeLabel;html=1;align=center;verticalAlign=middle;resizable=0;points=[];" vertex="1" connectable="0" parent="B5U1O5-QQuCSI6vYpxnP-112">
          <mxGeometry x="-0.0899" y="1" relative="1" as="geometry">
            <mxPoint as="offset" />
          </mxGeometry>
        </mxCell>
        <mxCell id="B5U1O5-QQuCSI6vYpxnP-114" style="edgeStyle=orthogonalEdgeStyle;rounded=0;orthogonalLoop=1;jettySize=auto;html=1;exitX=1;exitY=0.5;exitDx=0;exitDy=0;entryX=0.5;entryY=0;entryDx=0;entryDy=0;" edge="1" parent="WIyWlLk6GJQsqaUBKTNV-1" source="B5U1O5-QQuCSI6vYpxnP-116" target="B5U1O5-QQuCSI6vYpxnP-123">
          <mxGeometry relative="1" as="geometry" />
        </mxCell>
        <mxCell id="B5U1O5-QQuCSI6vYpxnP-115" value="Yes" style="edgeLabel;html=1;align=center;verticalAlign=middle;resizable=0;points=[];" vertex="1" connectable="0" parent="B5U1O5-QQuCSI6vYpxnP-114">
          <mxGeometry x="-0.3274" y="-2" relative="1" as="geometry">
            <mxPoint as="offset" />
          </mxGeometry>
        </mxCell>
        <mxCell id="B5U1O5-QQuCSI6vYpxnP-116" value="If |&lt;b&gt;&lt;u&gt;Ht - Hk_1&lt;/u&gt;&lt;/b&gt;| &amp;lt; e&lt;sup&gt;-5&lt;/sup&gt;" style="rhombus;whiteSpace=wrap;html=1;" vertex="1" parent="WIyWlLk6GJQsqaUBKTNV-1">
          <mxGeometry x="372.15000000000003" y="792" width="162.19" height="40" as="geometry" />
        </mxCell>
        <mxCell id="B5U1O5-QQuCSI6vYpxnP-117" style="edgeStyle=orthogonalEdgeStyle;rounded=0;orthogonalLoop=1;jettySize=auto;html=1;exitX=0;exitY=0.5;exitDx=0;exitDy=0;entryX=0.5;entryY=0;entryDx=0;entryDy=0;" edge="1" parent="WIyWlLk6GJQsqaUBKTNV-1" source="B5U1O5-QQuCSI6vYpxnP-121" target="B5U1O5-QQuCSI6vYpxnP-125">
          <mxGeometry relative="1" as="geometry" />
        </mxCell>
        <mxCell id="B5U1O5-QQuCSI6vYpxnP-118" value="Yes" style="edgeLabel;html=1;align=center;verticalAlign=middle;resizable=0;points=[];" vertex="1" connectable="0" parent="B5U1O5-QQuCSI6vYpxnP-117">
          <mxGeometry x="-0.4505" y="2" relative="1" as="geometry">
            <mxPoint as="offset" />
          </mxGeometry>
        </mxCell>
        <mxCell id="B5U1O5-QQuCSI6vYpxnP-119" value="" style="edgeStyle=orthogonalEdgeStyle;rounded=0;orthogonalLoop=1;jettySize=auto;html=1;" edge="1" parent="WIyWlLk6GJQsqaUBKTNV-1" source="B5U1O5-QQuCSI6vYpxnP-121" target="B5U1O5-QQuCSI6vYpxnP-131">
          <mxGeometry relative="1" as="geometry" />
        </mxCell>
        <mxCell id="B5U1O5-QQuCSI6vYpxnP-120" value="No" style="edgeLabel;html=1;align=center;verticalAlign=middle;resizable=0;points=[];" vertex="1" connectable="0" parent="B5U1O5-QQuCSI6vYpxnP-119">
          <mxGeometry x="-0.6714" y="1" relative="1" as="geometry">
            <mxPoint as="offset" />
          </mxGeometry>
        </mxCell>
        <mxCell id="B5U1O5-QQuCSI6vYpxnP-121" value="If &lt;b&gt;&lt;i&gt;nrs&lt;/i&gt;&lt;/b&gt; &amp;gt; 9" style="rhombus;whiteSpace=wrap;html=1;" vertex="1" parent="WIyWlLk6GJQsqaUBKTNV-1">
          <mxGeometry x="413.26" y="875" width="80" height="40" as="geometry" />
        </mxCell>
        <mxCell id="B5U1O5-QQuCSI6vYpxnP-122" style="edgeStyle=orthogonalEdgeStyle;rounded=0;orthogonalLoop=1;jettySize=auto;html=1;exitX=0.5;exitY=1;exitDx=0;exitDy=0;" edge="1" parent="WIyWlLk6GJQsqaUBKTNV-1" source="B5U1O5-QQuCSI6vYpxnP-123" target="B5U1O5-QQuCSI6vYpxnP-128">
          <mxGeometry relative="1" as="geometry">
            <Array as="points">
              <mxPoint x="653" y="1010" />
              <mxPoint x="457" y="1010" />
            </Array>
          </mxGeometry>
        </mxCell>
        <mxCell id="B5U1O5-QQuCSI6vYpxnP-123" value="display the solution converged in &lt;b&gt;&lt;i&gt;nrs&lt;/i&gt;&lt;/b&gt; newton raphson step" style="rounded=1;whiteSpace=wrap;html=1;" vertex="1" parent="WIyWlLk6GJQsqaUBKTNV-1">
          <mxGeometry x="563.25" y="852" width="180" height="30" as="geometry" />
        </mxCell>
        <mxCell id="B5U1O5-QQuCSI6vYpxnP-124" style="edgeStyle=orthogonalEdgeStyle;rounded=0;orthogonalLoop=1;jettySize=auto;html=1;" edge="1" parent="WIyWlLk6GJQsqaUBKTNV-1" source="B5U1O5-QQuCSI6vYpxnP-125" target="B5U1O5-QQuCSI6vYpxnP-129">
          <mxGeometry relative="1" as="geometry" />
        </mxCell>
        <mxCell id="B5U1O5-QQuCSI6vYpxnP-125" value="Raise Value error and display graph" style="rounded=1;whiteSpace=wrap;html=1;" vertex="1" parent="WIyWlLk6GJQsqaUBKTNV-1">
          <mxGeometry x="212" y="915" width="213" height="17" as="geometry" />
        </mxCell>
        <mxCell id="B5U1O5-QQuCSI6vYpxnP-126" style="edgeStyle=orthogonalEdgeStyle;rounded=0;orthogonalLoop=1;jettySize=auto;html=1;exitX=0;exitY=0.5;exitDx=0;exitDy=0;entryX=0;entryY=0.5;entryDx=0;entryDy=0;" edge="1" parent="WIyWlLk6GJQsqaUBKTNV-1" source="B5U1O5-QQuCSI6vYpxnP-128" target="B5U1O5-QQuCSI6vYpxnP-91">
          <mxGeometry relative="1" as="geometry">
            <Array as="points">
              <mxPoint x="124" y="1073" />
              <mxPoint x="124" y="150" />
            </Array>
          </mxGeometry>
        </mxCell>
        <mxCell id="B5U1O5-QQuCSI6vYpxnP-127" style="edgeStyle=orthogonalEdgeStyle;rounded=0;orthogonalLoop=1;jettySize=auto;html=1;exitX=0.5;exitY=1;exitDx=0;exitDy=0;entryX=1;entryY=0.5;entryDx=0;entryDy=0;" edge="1" parent="WIyWlLk6GJQsqaUBKTNV-1" source="B5U1O5-QQuCSI6vYpxnP-128" target="B5U1O5-QQuCSI6vYpxnP-84">
          <mxGeometry relative="1" as="geometry" />
        </mxCell>
        <mxCell id="B5U1O5-QQuCSI6vYpxnP-128" value="&lt;b&gt;&lt;u&gt;self.Tg&lt;/u&gt;&lt;/b&gt; = stack the new temperature fields &lt;b&gt;&lt;u&gt;Tk_1&lt;/u&gt;&lt;/b&gt;&lt;br&gt;&lt;b&gt;&lt;u&gt;self.Hg&lt;/u&gt;&lt;/b&gt; = stack the new Enthalpy fields &lt;b&gt;&lt;u&gt;Hk_1&lt;/u&gt;&lt;/b&gt;" style="whiteSpace=wrap;html=1;rounded=1;" vertex="1" parent="WIyWlLk6GJQsqaUBKTNV-1">
          <mxGeometry x="263.95000000000005" y="1043" width="384.3" height="60" as="geometry" />
        </mxCell>
        <mxCell id="B5U1O5-QQuCSI6vYpxnP-129" value="End" style="rounded=1;whiteSpace=wrap;html=1;arcSize=50;" vertex="1" parent="WIyWlLk6GJQsqaUBKTNV-1">
          <mxGeometry x="293.43000000000006" y="953" width="50.15" height="14" as="geometry" />
        </mxCell>
        <mxCell id="B5U1O5-QQuCSI6vYpxnP-131" value="Repeat The Netwon Raphson Scheme" style="rounded=1;whiteSpace=wrap;html=1;" vertex="1" parent="WIyWlLk6GJQsqaUBKTNV-1">
          <mxGeometry x="365.99" y="959" width="174.51" height="30" as="geometry" />
        </mxCell>
        <mxCell id="B5U1O5-QQuCSI6vYpxnP-132" value="&lt;b&gt;&lt;font style=&quot;font-size: 16px;&quot;&gt;Method: -Stefan_Problem_solver&lt;/font&gt;&lt;/b&gt;" style="text;html=1;strokeColor=none;fillColor=none;align=center;verticalAlign=middle;whiteSpace=wrap;rounded=0;" vertex="1" parent="WIyWlLk6GJQsqaUBKTNV-1">
          <mxGeometry x="40" y="53" width="135" height="37" as="geometry" />
        </mxCell>
        <mxCell id="B5U1O5-QQuCSI6vYpxnP-133" value="" style="edgeStyle=orthogonalEdgeStyle;rounded=0;orthogonalLoop=1;jettySize=auto;html=1;exitX=1;exitY=0.5;exitDx=0;exitDy=0;entryX=0.5;entryY=0;entryDx=0;entryDy=0;" edge="1" parent="WIyWlLk6GJQsqaUBKTNV-1" source="B5U1O5-QQuCSI6vYpxnP-111" target="B5U1O5-QQuCSI6vYpxnP-135">
          <mxGeometry relative="1" as="geometry">
            <mxPoint x="509" y="695" as="sourcePoint" />
            <mxPoint x="453" y="792" as="targetPoint" />
            <Array as="points" />
          </mxGeometry>
        </mxCell>
        <mxCell id="B5U1O5-QQuCSI6vYpxnP-134" value="Yes" style="edgeLabel;html=1;align=center;verticalAlign=middle;resizable=0;points=[];" vertex="1" connectable="0" parent="B5U1O5-QQuCSI6vYpxnP-133">
          <mxGeometry x="-0.6699" y="-2" relative="1" as="geometry">
            <mxPoint x="-13" y="-2" as="offset" />
          </mxGeometry>
        </mxCell>
        <mxCell id="B5U1O5-QQuCSI6vYpxnP-135" value="Print success message" style="shape=parallelogram;perimeter=parallelogramPerimeter;whiteSpace=wrap;html=1;fixedSize=1;" vertex="1" parent="WIyWlLk6GJQsqaUBKTNV-1">
          <mxGeometry x="499" y="717" width="199.75" height="38" as="geometry" />
        </mxCell>
      </root>
    </mxGraphModel>
  </diagram>
</mxfile>
